<svg width="42" height="42" viewBox="0 0 42 42" fill="none" xmlns="http://www.w3.org/2000/svg">
<rect x="0.5" y="0.5" width="41" height="41" rx="20.5" stroke="#1F1F23"/>
<path d="M28.2701 14.33C26.9401 13.71 25.5001 13.26 24.0001 13C23.987 12.9996 23.9739 13.0021 23.9618 13.0073C23.9497 13.0125 23.9389 13.0202 23.9301 13.03C23.7501 13.36 23.5401 13.79 23.4001 14.12C21.8091 13.88 20.1911 13.88 18.6001 14.12C18.4601 13.78 18.2501 13.36 18.0601 13.03C18.0501 13.01 18.0201 13 17.9901 13C16.4901 13.26 15.0601 13.71 13.7201 14.33C13.7101 14.33 13.7001 14.34 13.6901 14.35C10.9701 18.42 10.2201 22.38 10.5901 26.3C10.5901 26.32 10.6001 26.34 10.6201 26.35C12.4201 27.67 14.1501 28.47 15.8601 29C15.8901 29.01 15.9201 29 15.9301 28.98C16.3301 28.43 16.6901 27.85 17.0001 27.24C17.0201 27.2 17.0001 27.16 16.9601 27.15C16.3901 26.93 15.8501 26.67 15.3201 26.37C15.2801 26.35 15.2801 26.29 15.3101 26.26C15.4201 26.18 15.5301 26.09 15.6401 26.01C15.6601 25.99 15.6901 25.99 15.7101 26C19.1501 27.57 22.8601 27.57 26.2601 26C26.2801 25.99 26.3101 25.99 26.3301 26.01C26.4401 26.1 26.5501 26.18 26.6601 26.27C26.7001 26.3 26.7001 26.36 26.6501 26.38C26.1301 26.69 25.5801 26.94 25.0101 27.16C24.9701 27.17 24.9601 27.22 24.9701 27.25C25.2901 27.86 25.6501 28.44 26.0401 28.99C26.0701 29 26.1001 29.01 26.1301 29C27.8501 28.47 29.5801 27.67 31.3801 26.35C31.4001 26.34 31.4101 26.32 31.4101 26.3C31.8501 21.77 30.6801 17.84 28.3101 14.35C28.3001 14.34 28.2901 14.33 28.2701 14.33ZM17.5201 23.91C16.4901 23.91 15.6301 22.96 15.6301 21.79C15.6301 20.62 16.4701 19.67 17.5201 19.67C18.5801 19.67 19.4201 20.63 19.4101 21.79C19.4101 22.96 18.5701 23.91 17.5201 23.91ZM24.4901 23.91C23.4601 23.91 22.6001 22.96 22.6001 21.79C22.6001 20.62 23.4401 19.67 24.4901 19.67C25.5501 19.67 26.3901 20.63 26.3801 21.79C26.3801 22.96 25.5501 23.91 24.4901 23.91Z" fill="#606468"/>
</svg>
