<svg width="42" height="42" viewBox="0 0 42 42" fill="none" xmlns="http://www.w3.org/2000/svg">
<rect x="0.5" y="0.5" width="41" height="41" rx="20.5" stroke="#1F1F23"/>
<g clip-path="url(#clip0_113_109)">
<path d="M16.024 11.3098C16.775 11.5642 17.4894 11.9159 18.149 12.3558C19.0806 12.1177 20.0385 11.9981 21 11.9998C21.993 11.9998 22.951 12.1238 23.849 12.3548C24.5084 11.9153 25.2224 11.564 25.973 11.3098C26.67 11.0728 27.663 10.6888 28.253 11.3418C28.653 11.7858 28.753 12.5298 28.824 13.0978C28.904 13.7318 28.923 14.5578 28.713 15.3778C29.516 16.4148 30 17.6518 30 18.9998C30 21.0418 28.894 22.8148 27.257 24.0428C26.4692 24.6263 25.5954 25.0838 24.667 25.3988C24.881 25.8888 25 26.4308 25 26.9998V29.9998C25 30.265 24.8946 30.5194 24.7071 30.7069C24.5196 30.8945 24.2652 30.9998 24 30.9998H18C17.7348 30.9998 17.4804 30.8945 17.2929 30.7069C17.1053 30.5194 17 30.265 17 29.9998V29.0088C16.045 29.1258 15.244 29.0218 14.563 28.7328C13.851 28.4308 13.355 27.9628 12.982 27.5148C12.628 27.0908 12.242 26.1348 11.684 25.9488C11.5594 25.9073 11.4441 25.8417 11.3449 25.7557C11.2456 25.6696 11.1643 25.5649 11.1055 25.4474C10.9868 25.2102 10.9672 24.9355 11.051 24.6838C11.1348 24.4321 11.3152 24.224 11.5524 24.1053C11.7896 23.9866 12.0643 23.967 12.316 24.0508C12.982 24.2728 13.416 24.7528 13.713 25.1388C14.193 25.7588 14.583 26.5688 15.343 26.8918C15.656 27.0248 16.115 27.1118 16.833 27.0138L17 26.9798C17.0019 26.4356 17.1152 25.8976 17.333 25.3988C16.4046 25.0838 15.5308 24.6264 14.743 24.0428C13.106 22.8148 12 21.0428 12 18.9998C12 17.6538 12.483 16.4178 13.284 15.3818C13.074 14.5618 13.092 13.7338 13.172 13.0988L13.177 13.0608C13.25 12.4788 13.335 11.7938 13.743 11.3418C14.333 10.6888 15.327 11.0738 16.023 11.3108L16.024 11.3098Z" fill="#606468"/>
</g>
<defs>
<clipPath id="clip0_113_109">
<rect width="24" height="24" fill="white" transform="translate(9 9)"/>
</clipPath>
</defs>
</svg>
