<svg width="39" height="39" viewBox="0 0 39 39" fill="none" xmlns="http://www.w3.org/2000/svg">
<path d="M19.2772 1.72707C18.6815 1.83307 18.1197 2.26765 17.9014 2.79126C17.7572 3.13893 17.7424 3.43783 17.8441 3.8279C17.9544 4.24552 18.0795 4.47659 18.3254 4.71826C18.885 5.26943 19.7733 5.35423 20.4368 4.92177C20.9837 4.56562 21.2932 3.98477 21.2636 3.36788C21.2487 3.08381 21.1957 2.8803 21.0664 2.64075C20.8311 2.19345 20.4453 1.87123 20.0086 1.75463C19.8559 1.71435 19.4383 1.69739 19.2772 1.72707ZM19.398 2.12773C19.4595 2.16377 19.5528 2.30369 19.5528 2.3588C19.5528 2.4224 19.4129 2.53264 19.2518 2.59835C19.0546 2.67891 18.885 2.81882 18.796 2.97358C18.6857 3.16649 18.5882 3.22584 18.4398 3.18557C18.1855 3.11561 18.2427 2.79338 18.567 2.45844C18.8659 2.14893 19.2094 2.01114 19.398 2.12773Z" fill="white"/>
<path d="M16.532 4.50186C15.9278 4.62906 14.6855 5.01912 14.0093 5.29259C10.8252 6.58361 8.25375 8.5212 6.30556 11.0948C5.86462 11.6756 5.63355 12.0296 5.22016 12.7525C4.45912 14.0817 4.21321 14.635 3.84435 15.8624C3.61328 16.6362 3.57724 16.774 3.44368 17.3591C3.31649 17.9166 3.27197 18.2092 3.27197 18.4678C3.27197 18.6437 3.27621 18.6628 3.31861 18.6925C3.36101 18.7222 3.75531 18.7264 7.11112 18.7264H10.8549L10.8358 18.8578C10.8273 18.932 10.7807 19.1292 10.734 19.2988C10.5772 19.8775 10.5199 20.2549 10.4775 20.9778C10.4288 21.8342 10.4924 22.4044 10.7234 23.21C10.821 23.5492 10.9778 23.9732 11.1029 24.2424L11.1771 24.4078L8.14139 24.3929C5.25408 24.3823 3.9991 24.3972 3.56876 24.448L3.45216 24.4608L3.45428 24.6197C3.46064 24.9377 3.67687 25.6225 4.12841 26.746C4.56511 27.8356 4.83222 28.3826 5.32192 29.1987C6.01089 30.3414 6.74014 31.2996 7.58386 32.1645C7.86581 32.4507 8.65017 33.1587 9.10171 33.5318C10.7086 34.861 12.7649 35.9528 14.8466 36.5866C15.9872 36.9322 17.0492 37.1357 18.3657 37.2586C18.7536 37.2947 20.3754 37.2947 20.7824 37.2586C23.5255 37.0148 25.868 36.2283 28.2232 34.7635C28.7914 34.4073 29.58 33.8519 29.9298 33.5551C29.9997 33.4958 30.1905 33.3389 30.3537 33.2054C30.7841 32.8556 30.9473 32.7029 31.2717 32.3468C31.4307 32.1708 31.6829 31.9037 31.8292 31.7511C32.2489 31.3123 32.675 30.7865 32.9888 30.3181C33.3195 29.8262 34.0509 28.603 34.2501 28.2087C34.7292 27.259 35.1596 26.1906 35.4203 25.3087C35.6238 24.6155 35.6323 24.5222 35.5072 24.4396C35.4564 24.4056 35.1553 24.4035 31.6363 24.4056L27.8183 24.4099L27.8756 24.2975C27.9604 24.1301 28.1469 23.6594 28.2084 23.4538C28.4246 22.7415 28.52 22.0759 28.52 21.2915C28.52 20.5114 28.4458 19.9517 28.2678 19.4048C28.1618 19.0783 28.0961 18.8345 28.0961 18.7625C28.0961 18.7285 28.2868 18.7264 31.8228 18.7264C34.0233 18.7264 35.5814 18.7179 35.6323 18.7052C35.6811 18.6946 35.7383 18.6607 35.768 18.6268C35.8146 18.5738 35.8167 18.5568 35.8061 18.419C35.7913 18.26 35.4733 16.9563 35.3164 16.4157C35.0218 15.4003 34.5787 14.2471 34.1378 13.3525C33.8156 12.6974 33.1647 11.6311 32.7217 11.0312C32.533 10.7768 32.0306 10.1535 31.7232 9.79102C31.454 9.47515 30.9961 9.01302 30.7692 8.8307C30.659 8.74167 30.3834 8.50848 30.1566 8.31133C29.4719 7.71564 29.0415 7.39129 28.2847 6.88887C27.7675 6.54969 27.335 6.30378 26.6227 5.95399C24.9438 5.12511 23.3517 4.58878 22.1921 4.45946C21.9229 4.42978 21.7787 4.4319 21.7787 4.46582C21.7787 4.5273 21.607 4.83892 21.4883 5.00004C21.1724 5.41978 20.7739 5.70597 20.2736 5.8692C19.9047 5.99003 19.8602 6.04091 19.8284 6.39493C19.8051 6.63448 19.8242 9.60023 19.8496 9.90973C19.8708 10.1662 19.9111 10.2871 20.0001 10.3634C20.0892 10.4355 20.174 10.4567 20.5598 10.4906C21.0113 10.533 21.3251 10.5775 21.6855 10.6517C23.1037 10.9421 24.5219 11.6184 25.8892 12.655C26.5443 13.1511 26.6948 13.2952 26.9555 13.6916C27.2269 14.1008 27.371 14.4887 27.3859 14.8534C27.3944 15.0378 27.4007 15.0717 27.4474 15.1332C27.477 15.1713 27.6763 15.3346 27.8883 15.4957C28.3186 15.8221 28.7045 16.1889 28.9122 16.4751L29.0394 16.6489H29.6266C30.1672 16.6489 30.2138 16.6468 30.2244 16.6108C30.2308 16.5917 30.2478 16.4878 30.2626 16.3839C30.2944 16.1486 30.2923 14.3022 30.2584 14.0902C30.2244 13.8867 30.1736 13.804 29.9001 13.5221C29.6457 13.2613 29.58 13.1617 29.5249 12.9539C29.4909 12.8246 29.4867 12.5236 29.5185 12.3879C29.6287 11.9109 30.1248 11.5399 30.6505 11.5399C30.9643 11.5399 31.2208 11.6544 31.437 11.8855C31.8207 12.301 31.8822 12.8522 31.596 13.2931C31.5197 13.4118 31.4264 13.5051 31.1975 13.6959C31.136 13.7468 31.0682 13.8294 31.0406 13.8846C30.9834 14.0054 30.9834 13.9884 31.0088 15.5042C31.0215 16.3161 31.0194 16.6892 31.0003 16.8821C30.977 17.1428 30.9516 17.2976 30.9304 17.3209C30.924 17.3273 30.8244 17.3464 30.7099 17.3654C30.5488 17.3909 30.3389 17.3994 29.7708 17.3994C28.6133 17.3994 28.5857 17.3888 28.0685 16.6913C27.9519 16.5344 27.8099 16.3606 27.7505 16.3034C27.6551 16.2122 27.4474 16.0829 27.4262 16.1041C27.4071 16.1232 27.3732 16.3733 27.3223 16.8821C27.2354 17.7513 27.1315 18.2706 26.9004 18.9702C26.7054 19.5574 26.6058 19.8097 26.3938 20.2633C26.1818 20.717 26.1267 20.8633 26.1118 21.0138C26.0927 21.1791 26.1245 21.2724 26.3259 21.6731C26.858 22.733 27.2015 24.0029 27.3753 25.5631C27.4007 25.7836 27.424 25.968 27.4283 25.9722C27.4368 25.9828 27.564 25.915 27.636 25.862C27.6678 25.8387 27.7802 25.7179 27.8841 25.5928C28.0812 25.3596 28.1851 25.2727 28.3229 25.2218C28.5751 25.1328 28.7596 25.2494 28.7575 25.4995C28.7553 25.8133 28.467 26.1948 27.9265 26.5997C27.4262 26.9728 27.4071 26.9962 27.3329 27.365C27.2057 27.9946 26.9555 28.4335 26.4234 28.9656C26.1118 29.2751 25.8617 29.4807 25.4546 29.7563C24.7678 30.2205 24.0216 30.6021 23.2309 30.8947C22.4931 31.1681 21.4798 31.3886 20.528 31.4882C19.9917 31.5434 19.945 31.554 19.9005 31.6409C19.8708 31.696 19.8687 31.7596 19.8814 32.1009C19.892 32.368 19.8878 32.5715 19.8708 32.7284C19.839 33.023 19.8539 33.0654 20.0531 33.2393C20.1337 33.3071 20.2672 33.4322 20.352 33.517C20.8375 34.0024 20.8311 34.6681 20.3372 35.1578C19.9514 35.5394 19.4447 35.6369 18.9911 35.4122C18.565 35.2023 18.3403 34.8334 18.3381 34.3395C18.336 34.0385 18.4144 33.7905 18.5756 33.5763C18.6201 33.517 18.7579 33.3898 18.8808 33.2923C19.0038 33.1948 19.1161 33.0909 19.131 33.0591C19.1543 33.0167 19.1628 32.8577 19.167 32.4104C19.1734 31.8274 19.1713 31.8147 19.1246 31.7214C19.0356 31.5476 18.8766 31.4967 18.2491 31.4352C17.1637 31.3292 16.0126 30.9858 14.8784 30.4283C13.9224 29.9555 13.1656 29.4446 12.608 28.8914C12.1162 28.4038 11.8894 28.0307 11.7304 27.4604C11.6838 27.2908 11.618 27.0937 11.582 27.0216C11.5057 26.8668 11.3382 26.7036 11.1241 26.5764C10.5242 26.216 10.1913 25.6988 10.3567 25.385C10.4224 25.26 10.4966 25.207 10.6111 25.207C10.7658 25.207 10.8549 25.2684 11.158 25.5801C11.3149 25.7412 11.4718 25.8875 11.5036 25.9044C11.6626 25.9871 11.7028 25.879 11.741 25.2578C11.7791 24.6664 11.8025 24.4798 11.883 24.0898C12.0717 23.1591 12.3134 22.4362 12.6737 21.7155C12.8645 21.3318 12.9387 21.124 12.9387 20.9714C12.9366 20.8188 12.9281 20.7954 12.6568 20.2188C12.0823 19.0084 11.8088 17.9781 11.6774 16.5429C11.6583 16.3267 11.6371 16.1401 11.6329 16.1253C11.6202 16.0744 11.493 16.1444 11.3424 16.2864C11.2619 16.3627 11.1029 16.5556 10.9905 16.7125C10.7552 17.0411 10.5496 17.2679 10.4288 17.3336C10.344 17.3803 10.3207 17.3803 9.3879 17.3866C8.30887 17.393 8.25587 17.3866 8.17531 17.2658C8.13503 17.2064 8.12655 17.1662 8.12655 17.0263C8.12655 16.8694 8.13079 16.8524 8.18591 16.7973C8.30887 16.6765 8.3979 16.6637 9.25222 16.651C9.98995 16.6383 10.0323 16.6362 10.079 16.5959C10.1044 16.5726 10.2337 16.4072 10.3673 16.2292C10.6916 15.7946 10.7171 15.767 11.0881 15.4914C11.5205 15.1671 11.5947 15.0717 11.6562 14.7707C11.7919 14.105 12.165 13.4627 12.6737 13.0196C12.8645 12.8522 13.6849 12.2543 14.0156 12.0402C15.1244 11.3216 16.5383 10.7959 18.0307 10.5436C18.2321 10.5097 18.4929 10.4779 18.6095 10.4694C18.919 10.4503 19.0101 10.4249 19.0843 10.3422C19.1289 10.2892 19.1501 10.2404 19.1607 10.1578C19.167 10.0963 19.1713 9.17201 19.167 8.1057C19.1607 6.19778 19.1607 6.16386 19.1183 6.09179C19.0547 5.98579 18.9169 5.901 18.5946 5.7738C18.0307 5.55333 17.8739 5.42826 17.5135 4.91948C17.1425 4.39375 17.1107 4.38103 16.532 4.50186ZM15.207 6.52637V6.66416H15.0904H14.9738V6.52637V6.38857H15.0904H15.207V6.52637ZM16.7291 6.51365C16.7567 6.64084 16.7927 6.6896 16.8775 6.71716C16.9284 6.732 16.9878 6.84011 16.9878 6.91431C16.9878 6.94399 16.9687 6.95883 16.922 6.96943C16.8372 6.98639 16.7164 7.1157 16.7079 7.2005C16.7037 7.23654 16.6825 7.27682 16.6549 7.29589C16.6104 7.32345 16.6062 7.32345 16.5935 7.28741C16.5277 7.08178 16.4217 6.92703 16.3327 6.90795C16.2797 6.89735 16.267 6.88251 16.267 6.83587C16.267 6.78924 16.2818 6.7744 16.3391 6.7532C16.4281 6.7214 16.4705 6.67264 16.5065 6.56665C16.532 6.49457 16.6401 6.38857 16.6888 6.38857C16.6973 6.38857 16.7143 6.44369 16.7291 6.51365ZM22.3511 6.43521C22.3511 6.60269 22.4507 6.73624 22.5907 6.7638C22.6733 6.78076 22.6797 6.78712 22.6861 6.85707C22.6924 6.92915 22.6861 6.93763 22.5907 6.98427C22.5313 7.01395 22.4719 7.06483 22.4465 7.1051C22.279 7.38069 22.2239 7.43793 22.2239 7.33405C22.2239 7.26198 22.1709 7.13266 22.1158 7.0733C22.0734 7.03091 22.0395 7.01183 21.8996 6.96095C21.8423 6.93975 21.8423 6.93975 21.8741 6.87403C21.8975 6.82952 21.9441 6.79348 22.0204 6.75956C22.1561 6.7002 22.173 6.679 22.2048 6.54757C22.2176 6.48821 22.2324 6.42885 22.2366 6.41401C22.2409 6.40129 22.2684 6.38857 22.2981 6.38857C22.3384 6.38857 22.3511 6.39917 22.3511 6.43521ZM24.3163 6.54121C24.3629 6.58997 24.3608 6.73836 24.312 6.79136C24.2823 6.82528 24.2463 6.83376 24.1488 6.83376C24.0068 6.83376 23.994 6.82104 23.994 6.66416C23.994 6.50093 24.0068 6.48821 24.153 6.49881C24.2315 6.50517 24.2951 6.52213 24.3163 6.54121ZM13.1931 6.99275C13.1931 7.11994 13.1401 7.17294 13.0151 7.17294C12.9006 7.17294 12.8645 7.1369 12.8815 7.03303C12.9006 6.91643 12.9281 6.89735 13.068 6.89735H13.1931V6.99275ZM25.8935 7.88523C26.5082 8.06754 26.9089 8.70351 26.7732 9.28012C26.6948 9.61083 26.4743 9.8843 26.1648 10.0348C25.991 10.1175 25.9846 10.1196 25.7557 10.1196C25.3847 10.1196 25.1324 10.0645 24.9777 9.95213C24.9353 9.92245 24.859 9.8419 24.8102 9.77406C24.7614 9.70834 24.6894 9.62779 24.6533 9.59599C24.4244 9.40308 23.9834 9.35432 22.8175 9.3946C22.1285 9.42004 21.7872 9.4052 21.6727 9.34584C21.4586 9.23561 21.4883 8.9155 21.7257 8.77983L21.8105 8.73107H23.0507C24.1997 8.73107 24.2972 8.72895 24.3756 8.69291C24.4922 8.63991 24.5664 8.5636 24.6639 8.39612C24.8674 8.05058 25.2024 7.85555 25.5967 7.85343C25.7048 7.85131 25.8235 7.86403 25.8935 7.88523ZM14.1725 7.93822C14.3442 7.99546 14.499 8.10146 14.6453 8.25833C14.8488 8.47668 14.9526 8.73743 14.9526 9.02785C14.9526 9.35644 14.8361 9.64263 14.6135 9.86522C14.3315 10.1472 13.9669 10.2426 13.5683 10.1429C13.28 10.0687 13.1126 9.96061 12.8921 9.71046C12.6398 9.42216 12.8349 9.45396 11.3191 9.45396C10.0451 9.45184 10.0005 9.44972 9.91999 9.40944C9.87335 9.38612 9.81824 9.3416 9.79492 9.31192C9.74192 9.23985 9.72072 9.00242 9.75888 8.91126C9.78856 8.83918 9.89243 8.77559 10.0239 8.75015C10.0705 8.74167 10.6535 8.73319 11.3191 8.73319L12.5296 8.73107L12.608 8.67595C12.6504 8.64627 12.7522 8.53604 12.8349 8.43216C13.0129 8.20745 13.1592 8.05482 13.2482 7.9997C13.4263 7.88735 13.9266 7.85555 14.1725 7.93822ZM21.058 8.0315V8.16929H20.9456H20.8333L20.8121 8.08662C20.793 8.01878 20.7951 7.99334 20.8227 7.94882C20.8502 7.90219 20.8714 7.89371 20.9562 7.89371H21.058V8.0315ZM18.0477 8.09086C18.0477 8.24561 18.0265 8.27529 17.9163 8.27529C17.8188 8.27529 17.7297 8.20109 17.7297 8.11842C17.7297 8.09086 17.7255 8.0527 17.7191 8.03786C17.7022 7.99334 17.787 7.95942 17.9269 7.95942L18.0477 7.9573V8.09086ZM27.971 8.33465C28.0134 8.37069 28.0176 8.3834 27.9985 8.4682L27.9795 8.56148L27.8692 8.56784L27.759 8.5742L27.7357 8.48728C27.7229 8.43852 27.7081 8.38764 27.7017 8.3728C27.6742 8.30285 27.8925 8.27317 27.971 8.33465ZM16.7376 9.08933C16.9136 9.20381 16.8394 9.52603 16.6189 9.60871C16.5489 9.63627 16.5256 9.63415 16.4281 9.60447C16.3263 9.57267 16.3136 9.55995 16.2924 9.48575C16.2394 9.3098 16.2818 9.08297 16.3751 9.05541C16.4578 9.02998 16.6782 9.05117 16.7376 9.08933ZM28.202 9.99665C28.2042 10.1556 28.2423 10.374 28.2868 10.4588C28.342 10.569 28.4564 10.6411 28.6218 10.6729C28.7469 10.6962 28.7532 10.7005 28.7532 10.7598C28.7532 10.8467 28.6684 10.9252 28.5751 10.9252C28.4628 10.9252 28.3992 10.957 28.3292 11.0545C28.2699 11.1372 28.2656 11.1562 28.2656 11.3216C28.2656 11.47 28.2572 11.5124 28.2211 11.5633C28.1681 11.6396 28.1321 11.6417 28.077 11.5696C28.0431 11.5251 28.0325 11.4827 28.0325 11.3746C28.0325 11.2092 27.9816 11.0863 27.8713 10.9909C27.8014 10.9273 27.6254 10.8616 27.53 10.8616C27.4876 10.8616 27.4813 10.851 27.4813 10.7789C27.4813 10.6877 27.4834 10.6856 27.6403 10.6602C27.8883 10.6199 28.0091 10.4461 28.0282 10.1069L28.0388 9.90762H28.1194H28.202V9.99665ZM11.2789 10.6644C11.2979 10.7132 11.3149 10.8319 11.3212 10.9676C11.334 11.275 11.3636 11.3131 11.6753 11.417C11.8449 11.4721 11.847 11.4721 11.8406 11.5399C11.8321 11.6565 11.8046 11.6841 11.6795 11.6989C11.5417 11.7159 11.459 11.7625 11.3785 11.8706C11.3255 11.9406 11.3149 11.9724 11.3064 12.1378C11.2958 12.3052 11.2873 12.3285 11.2322 12.3879C11.1983 12.4218 11.1601 12.4515 11.1453 12.4515C11.1071 12.4515 11.0732 12.3158 11.0732 12.1653C11.0732 11.9003 10.999 11.8007 10.7383 11.7095C10.6598 11.6841 10.5644 11.6417 10.5242 11.6184L10.4521 11.5739L10.5305 11.506C10.575 11.4679 10.6386 11.4318 10.6726 11.4255C10.7065 11.4191 10.7616 11.4085 10.7955 11.4021C10.8273 11.3937 10.8867 11.3597 10.9248 11.3216C11.0351 11.2156 11.0732 11.1096 11.0732 10.9061C11.0732 10.7344 11.0753 10.728 11.1453 10.6581C11.1856 10.6178 11.2237 10.586 11.2322 10.586C11.2386 10.586 11.2598 10.622 11.2789 10.6644ZM14.1216 10.745C14.1365 10.7747 14.1471 10.8319 14.1471 10.8722C14.1471 11.0142 13.9669 11.0524 13.8736 10.9336C13.8164 10.8595 13.8418 10.798 13.9563 10.7386C14.075 10.6793 14.092 10.6793 14.1216 10.745ZM26.2051 11.0248C26.2687 11.1181 26.2772 11.1605 26.2411 11.2135C26.2157 11.2538 26.1903 11.2644 26.1245 11.2644C25.9401 11.2644 25.8956 11.0884 26.0567 11.0015C26.1373 10.957 26.1585 10.9591 26.2051 11.0248ZM8.91728 11.3322C8.93636 11.347 8.96604 11.3958 8.98511 11.4382C9.01479 11.5124 9.01479 11.5187 8.97027 11.5484C8.91304 11.5887 8.78372 11.5929 8.73285 11.5548C8.71377 11.5399 8.69045 11.4891 8.68409 11.4403L8.67349 11.3534L8.76464 11.3322C8.81552 11.3216 8.86428 11.311 8.87064 11.3089C8.877 11.3068 8.8982 11.3195 8.91728 11.3322ZM7.69197 12.0254C7.72589 12.0932 7.71529 12.2014 7.67077 12.2395C7.65593 12.2522 7.60294 12.2543 7.5457 12.248L7.44818 12.2332V12.0996V11.9639H7.55418C7.64957 11.9639 7.66229 11.9703 7.69197 12.0254ZM28.5497 13.0642C28.5942 13.0748 28.6387 13.0917 28.6493 13.1023C28.6769 13.132 28.7066 13.4097 28.6875 13.4881C28.6578 13.6217 28.5497 13.6577 28.308 13.6174C28.166 13.5941 28.1575 13.5878 28.1278 13.5178C28.0833 13.4097 28.0876 13.2613 28.1384 13.1765C28.2105 13.0599 28.3568 13.0196 28.5497 13.0642ZM9.29038 13.45C9.50449 13.4987 9.7186 13.6683 9.81612 13.8697C9.86911 13.9757 9.87547 14.0117 9.87547 14.2004C9.87547 14.387 9.86911 14.4272 9.81824 14.5332C9.7398 14.705 9.59565 14.8512 9.43877 14.9212C9.31794 14.9742 9.2925 14.9784 9.09323 14.9699C8.74556 14.953 8.52722 14.8385 8.4085 14.6053C8.33218 14.459 8.31522 14.1856 8.37034 13.9863C8.48906 13.5454 8.83248 13.3461 9.29038 13.45ZM6.77193 14.0626L6.89277 14.0902L6.91609 14.2343C6.95213 14.4548 6.94577 14.5163 6.88429 14.5905C6.74862 14.7537 6.43487 14.7113 6.35643 14.5205C6.33099 14.459 6.33099 14.4251 6.35643 14.2746C6.37339 14.1771 6.39035 14.0965 6.39247 14.0944C6.40943 14.0796 6.61294 14.0245 6.63202 14.0287C6.64474 14.0329 6.70622 14.0478 6.77193 14.0626ZM32.781 15.1756V15.3134H32.6856C32.6178 15.3134 32.5775 15.3007 32.5478 15.271C32.5182 15.2413 32.5055 15.201 32.5055 15.1332V15.0378H32.6432H32.781V15.1756ZM29.6351 15.218C29.722 15.43 29.6012 15.5466 29.4167 15.4278C29.3532 15.3876 29.3553 15.3113 29.421 15.2498C29.4655 15.2095 29.5503 15.1586 29.5969 15.1459C29.6012 15.1438 29.6181 15.1777 29.6351 15.218ZM9.02751 15.6653C9.09323 15.7268 9.09535 15.8009 9.03387 15.8582C8.9618 15.9239 8.89608 15.9366 8.83672 15.8985C8.79432 15.8709 8.78372 15.8455 8.78372 15.7713C8.78372 15.695 8.79432 15.6695 8.84096 15.6356C8.90668 15.589 8.9512 15.5953 9.02751 15.6653ZM7.55418 15.926V16.0278L7.46514 16.0405C7.38459 16.0532 7.36763 16.0469 7.32735 15.9981C7.28495 15.9451 7.28495 15.9366 7.31251 15.8815C7.34007 15.8285 7.35491 15.8221 7.44818 15.8221H7.55418V15.926ZM5.99605 16.1232C6.01301 16.1847 6.02785 16.3076 6.02785 16.3988C6.02785 16.5811 6.05753 16.6637 6.13808 16.7167C6.1932 16.7528 6.39459 16.827 6.53239 16.8609C6.61506 16.8821 6.62142 16.8885 6.62142 16.9584C6.62142 17.039 6.62566 17.0369 6.43487 17.075C6.36067 17.0877 6.27164 17.1216 6.2356 17.145C6.11052 17.2298 6.08933 17.2806 6.07237 17.5266C6.05965 17.7025 6.04693 17.7661 6.01301 17.8106C5.96001 17.8827 5.92609 17.8827 5.8731 17.8106C5.8413 17.7661 5.82646 17.7046 5.81586 17.5626C5.79466 17.2573 5.69714 17.1534 5.36856 17.0793L5.22016 17.0475L5.22652 16.9605C5.23288 16.8757 5.23288 16.8757 5.36008 16.8397C5.53391 16.7909 5.70138 16.7019 5.7459 16.6341C5.7777 16.5874 5.78194 16.5408 5.7777 16.3903C5.77346 16.2779 5.78194 16.1847 5.79678 16.1571C5.83282 16.0871 5.92609 15.9917 5.94517 16.0045C5.95577 16.0108 5.97697 16.0638 5.99605 16.1232ZM32.3867 16.2376C32.4291 16.28 32.4291 16.3585 32.3889 16.4369C32.3422 16.526 32.2299 16.526 32.1684 16.439C32.109 16.3564 32.1133 16.3012 32.179 16.2482C32.2468 16.1952 32.3401 16.191 32.3867 16.2376ZM33.5824 17.0475C33.6142 17.0898 33.6142 17.1407 33.5824 17.2107C33.5612 17.2573 33.5463 17.2637 33.4446 17.2637H33.3322V17.1619C33.3322 17.075 33.3407 17.0581 33.3916 17.0284C33.4552 16.9881 33.5421 16.9987 33.5824 17.0475ZM27.6233 20.4775C27.6615 20.6428 27.7166 20.6979 27.8671 20.717C27.971 20.7297 27.9795 20.734 27.9731 20.7827C27.9604 20.8718 27.9074 20.9311 27.7908 20.982C27.6615 21.0392 27.6233 21.1071 27.5979 21.3275C27.5852 21.4505 27.5788 21.4611 27.5322 21.4611C27.4919 21.4611 27.4792 21.4441 27.4601 21.3699C27.3986 21.1261 27.3668 21.0774 27.176 20.9248C27.1336 20.8908 27.0997 20.8548 27.0997 20.8463C27.0997 20.8378 27.1421 20.8039 27.1909 20.7764C27.3308 20.6937 27.4283 20.5729 27.4601 20.4457C27.4834 20.346 27.4919 20.3354 27.5406 20.3418C27.5894 20.3481 27.5979 20.363 27.6233 20.4775ZM11.5205 20.611C11.5587 20.6407 11.5714 20.6788 11.5841 20.7954C11.6011 20.9672 11.652 21.0265 11.8046 21.0477C11.8936 21.0625 11.9 21.0668 11.9 21.1304C11.9 21.2173 11.8873 21.2321 11.7685 21.2894C11.6371 21.3509 11.5905 21.4123 11.5735 21.548C11.5417 21.7812 11.476 21.7854 11.3912 21.5565C11.3276 21.3827 11.2555 21.3063 11.1156 21.2597C11.0287 21.23 11.0096 21.2152 11.0096 21.1749C11.0096 21.1325 11.0266 21.1198 11.0902 21.1007C11.2873 21.0477 11.3806 20.929 11.4039 20.7022C11.4188 20.5601 11.44 20.5453 11.5205 20.611ZM32.4037 25.4529C32.4185 25.6394 32.4631 25.7115 32.5966 25.7772C32.6899 25.8196 32.781 25.9129 32.781 25.9616C32.781 25.968 32.7344 25.9892 32.6793 26.0062C32.5139 26.0613 32.4334 26.1694 32.4016 26.3793C32.391 26.4619 32.3825 26.4747 32.338 26.4747C32.2935 26.4747 32.2807 26.4556 32.2362 26.3178C32.1663 26.1037 32.1366 26.0634 32.0348 26.0486C31.9882 26.0401 31.9225 26.0104 31.8886 25.9828C31.8313 25.9341 31.8292 25.9277 31.8589 25.8832C31.8949 25.8281 31.9606 25.7942 32.0688 25.773C32.162 25.756 32.179 25.7306 32.1981 25.5546C32.215 25.4084 32.2744 25.3193 32.3528 25.3193C32.3867 25.3193 32.3952 25.3384 32.4037 25.4529ZM6.25892 25.4571C6.33735 25.4974 6.34583 25.5228 6.34583 25.7306C6.34583 25.8769 6.35431 25.9192 6.39459 25.9786C6.44971 26.0655 6.68078 26.1885 6.78253 26.1885C6.83129 26.1885 6.86309 26.2033 6.89489 26.2436C6.92033 26.2754 6.93941 26.3072 6.93941 26.3178C6.93941 26.3581 6.80373 26.4259 6.68078 26.4471C6.51543 26.4747 6.46455 26.5065 6.40943 26.6103C6.37551 26.6803 6.32463 26.9665 6.32463 27.1043C6.32463 27.1361 6.30556 27.1424 6.22076 27.1424H6.119L6.10416 26.9559C6.07449 26.5997 5.99817 26.4853 5.76922 26.4556C5.65474 26.4386 5.53179 26.3793 5.51271 26.3284C5.50211 26.3008 5.55723 26.2372 5.61871 26.2012C5.63355 26.1927 5.70562 26.1758 5.77558 26.1652C5.84766 26.1546 5.92397 26.1355 5.94517 26.1228C6.02573 26.0804 6.07237 25.9404 6.0978 25.6776C6.12324 25.3999 6.13172 25.3893 6.25892 25.4571ZM9.1971 26.091C9.24586 26.1397 9.2925 26.2648 9.2925 26.3517C9.2925 26.4344 9.25222 26.5065 9.18227 26.551C9.09323 26.6061 8.89184 26.5955 8.80704 26.5319C8.68833 26.445 8.74345 26.1821 8.90032 26.0825C8.99359 26.0231 9.13139 26.0252 9.1971 26.091ZM30.0018 26.5722C30.235 26.6252 30.4809 26.8032 30.5869 26.9962C30.6442 27.1022 30.6505 27.1318 30.6569 27.3608C30.6654 27.6067 30.6633 27.6152 30.5997 27.7466C30.5212 27.9056 30.3749 28.0455 30.199 28.1324C30.0909 28.1854 30.057 28.1918 29.8768 28.1897C29.6287 28.1875 29.4803 28.1367 29.3277 27.9989C28.891 27.6067 29.0733 26.7524 29.6287 26.5785C29.7369 26.5446 29.8768 26.5425 30.0018 26.5722ZM7.99088 27.8462C8.03752 27.8971 8.09687 27.9734 8.12443 28.018L8.17531 28.1006L8.01844 28.2575C7.93364 28.3444 7.84673 28.4144 7.82765 28.4144C7.75345 28.4144 7.61566 28.2851 7.56054 28.1642C7.49906 28.0243 7.50754 27.9968 7.66229 27.8526C7.80221 27.7233 7.8764 27.7212 7.99088 27.8462ZM10.4902 28.0985C10.5432 28.124 10.6323 28.1939 10.6895 28.2575C10.8294 28.4101 10.8867 28.5649 10.8909 28.7854C10.893 28.9316 10.8845 28.9719 10.8337 29.0758C10.7552 29.2348 10.6344 29.3365 10.4627 29.3895C10.0917 29.504 9.76736 29.3853 9.62745 29.0821C9.58717 28.9952 9.57869 28.9401 9.57869 28.7748C9.57869 28.5988 9.58717 28.5585 9.63804 28.4462C9.80128 28.0964 10.168 27.9459 10.4902 28.0985ZM32.179 28.1049C32.2447 28.1706 32.2511 28.1897 32.2511 28.2978C32.2511 28.4038 32.2426 28.425 32.1875 28.4822C32.126 28.5437 32.1154 28.5458 31.9734 28.5373C31.8737 28.5331 31.8186 28.5183 31.8038 28.4992C31.7932 28.4822 31.7868 28.3826 31.7889 28.2766C31.7953 28.0985 31.7974 28.0858 31.8483 28.0604C31.878 28.0455 31.9479 28.0328 32.0052 28.0328C32.0921 28.0328 32.1175 28.0434 32.179 28.1049ZM28.2656 29.3853C28.2656 29.4764 28.2805 29.6058 28.2974 29.6757C28.3547 29.8941 28.4522 29.9789 28.7023 30.0297L28.8211 30.0531L28.8083 30.1273C28.7935 30.2248 28.7469 30.2714 28.6472 30.2884C28.5328 30.3075 28.3928 30.4198 28.3314 30.5428C28.2932 30.6212 28.2762 30.6933 28.2699 30.8247L28.2593 31.0007H28.1808H28.1024L28.0897 30.8565C28.0685 30.6297 28.0197 30.5025 27.9201 30.3986C27.8353 30.3096 27.6911 30.2439 27.6466 30.2714C27.5958 30.3032 27.5258 30.2566 27.5046 30.1781C27.4707 30.0594 27.4728 30.0531 27.583 30.0361C27.7102 30.017 27.8395 29.9598 27.8989 29.8962C27.9689 29.8199 28.0049 29.7139 28.0431 29.4828C28.0876 29.2072 28.0812 29.2199 28.1808 29.2199H28.2656V29.3853ZM8.23255 29.4913C8.34278 29.6036 8.37246 29.8347 8.28979 29.9322C8.23043 30.0001 8.06084 30.0255 7.95484 29.9831C7.88276 29.9534 7.82553 29.8496 7.84037 29.7796C7.84461 29.7584 7.85521 29.7033 7.86157 29.6588C7.86792 29.6142 7.90184 29.5464 7.94 29.5061C8.0248 29.4065 8.14139 29.4023 8.23255 29.4913ZM30.9516 30.0446C30.977 30.14 30.9706 30.3944 30.9388 30.4664C30.907 30.5449 30.8201 30.5979 30.7311 30.5979C30.5827 30.5958 30.3855 30.441 30.3855 30.3265C30.3877 30.2947 30.3983 30.2078 30.4131 30.1315L30.4385 29.9958L30.553 29.9619C30.6569 29.9301 30.6781 29.9301 30.8032 29.9598C30.9176 29.9873 30.941 30.0001 30.9516 30.0446ZM12.5487 30.2735C12.5996 30.388 12.6822 30.4601 12.7967 30.4855C12.8476 30.4961 12.8539 30.5067 12.8539 30.5767C12.8539 30.6551 12.8539 30.6551 12.7522 30.67C12.5974 30.689 12.5614 30.7251 12.5444 30.8735C12.5317 30.9985 12.4893 31.0621 12.4045 31.0918C12.3748 31.1024 12.3664 31.0833 12.3536 30.9837C12.3324 30.7993 12.2964 30.7336 12.1798 30.6615C12.1226 30.6276 12.0653 30.5746 12.0526 30.547C12.0314 30.4982 12.0335 30.494 12.1099 30.4813C12.2116 30.4643 12.2731 30.4092 12.3261 30.2863C12.3494 30.2333 12.3876 30.1612 12.413 30.1251L12.4596 30.0615L12.4787 30.1124C12.4914 30.14 12.5211 30.2142 12.5487 30.2735ZM26.0949 30.1506C26.1691 30.1972 26.1945 30.2629 26.1712 30.3541C26.1563 30.4092 26.1436 30.4177 26.0673 30.424C25.9973 30.4283 25.974 30.4219 25.9465 30.3816C25.8829 30.2926 25.9189 30.1103 25.9973 30.1103C26.0143 30.1103 26.0588 30.1294 26.0949 30.1506ZM10.5178 30.7081C10.6514 30.8332 10.6662 31.0706 10.5454 31.1639C10.433 31.2508 10.2274 31.2381 10.1256 31.1363C10.079 31.0876 10.0726 31.0685 10.0811 30.9604C10.0917 30.8183 10.1532 30.7145 10.2549 30.67C10.3397 30.6318 10.45 30.6466 10.5178 30.7081ZM9.10807 31.1639C9.13351 31.1787 9.11443 31.378 9.08687 31.4056C9.07627 31.4162 9.01903 31.431 8.95968 31.4395C8.84308 31.4522 8.84732 31.4564 8.81552 31.3017C8.80492 31.2529 8.81128 31.2148 8.83672 31.1766C8.87064 31.1279 8.88124 31.1236 8.98087 31.1363C9.04023 31.1448 9.09747 31.1575 9.10807 31.1639ZM25.5013 31.4458C25.9337 31.5561 26.3111 31.8783 26.4849 32.2853C26.6164 32.5885 26.6482 33.0167 26.5697 33.3538C26.4976 33.6484 26.3789 33.8646 26.1669 34.0745C25.9104 34.3331 25.656 34.4561 25.2935 34.4964C25.0646 34.5218 24.5749 34.4646 24.3459 34.384C24.0873 34.295 24.0852 34.295 23.782 34.5897C23.6888 34.6808 23.5213 34.8292 23.4111 34.9182C23.3008 35.0073 23.1334 35.1514 23.0422 35.2362C22.6924 35.5542 22.3426 35.6432 22.2133 35.444C22.1646 35.3698 22.1794 35.1981 22.2472 35.0603C22.3024 34.9479 22.3893 34.8589 23.1249 34.1699C23.3581 33.9516 23.5595 33.7523 23.5743 33.7269C23.6103 33.6633 23.6082 33.5106 23.5679 33.3283C23.5149 33.0994 23.5149 32.6563 23.5679 32.5058C23.7587 31.9504 24.2675 31.5031 24.8166 31.4034C24.9692 31.3759 25.3105 31.3971 25.5013 31.4458ZM14.3591 32.1157C14.4121 32.1412 14.5414 32.2302 14.6453 32.315C14.9378 32.5524 14.959 32.5588 15.3872 32.5588C15.5865 32.5588 16.0253 32.5503 16.3624 32.5397C17.2655 32.5143 17.522 32.563 17.6301 32.7877C17.7 32.9298 17.6301 33.1142 17.4732 33.1948C17.2867 33.2923 17.2231 33.2965 16.1186 33.2986L15.0692 33.3008L14.9442 33.3601C14.8594 33.3983 14.7576 33.4788 14.6262 33.606C14.5202 33.7099 14.4015 33.8095 14.3633 33.8286C14.2594 33.8816 13.9584 33.9134 13.8249 33.8858C13.6044 33.8371 13.4454 33.7247 13.1698 33.4237C13.0363 33.2732 12.9833 33.2647 12.3642 33.2902C11.6816 33.3177 11.3255 33.3156 11.1305 33.2796C10.8294 33.2266 10.6916 33.1206 10.6916 32.9446C10.6916 32.8217 10.7468 32.7241 10.8549 32.6605C11.0372 32.5545 11.1389 32.5418 11.7198 32.5503C12.0123 32.5545 12.413 32.5588 12.6102 32.5588C13.0786 32.5588 13.1295 32.5418 13.3691 32.3171C13.6277 32.0733 13.6595 32.0606 14.0199 32.067C14.2128 32.0712 14.2828 32.0818 14.3591 32.1157ZM28.9949 32.1496C29.0373 32.2111 29.0373 32.3023 28.9949 32.3447C28.9525 32.3892 28.8613 32.3871 28.7999 32.3404C28.7575 32.3065 28.7511 32.2874 28.7617 32.2069C28.7659 32.156 28.7723 32.1115 28.7723 32.1072C28.7744 32.1051 28.8168 32.103 28.8677 32.103C28.9419 32.103 28.9694 32.1136 28.9949 32.1496ZM22.1497 32.4295C22.2218 32.4507 22.2366 32.4655 22.26 32.5376C22.2918 32.6499 22.2918 32.7687 22.26 32.898C22.2324 33.004 22.2303 33.004 22.1137 33.0336C22.0162 33.0591 21.9759 33.0591 21.8657 33.0358L21.7363 33.0082L21.7045 32.9022C21.6643 32.7665 21.6643 32.6902 21.7045 32.5567C21.7342 32.457 21.7427 32.4486 21.836 32.4168C21.9377 32.3828 21.9928 32.385 22.1497 32.4295ZM27.4537 32.9743C27.5915 33.0252 27.6488 33.1418 27.5703 33.2117C27.5046 33.2732 27.4325 33.288 27.371 33.2562C27.3202 33.2287 27.3117 33.2117 27.3117 33.1312C27.3117 33.0421 27.3456 32.951 27.3795 32.951C27.388 32.951 27.4198 32.9616 27.4537 32.9743ZM15.2028 34.6808C15.2452 34.6935 15.2494 34.7063 15.2494 34.8292V34.9649H15.154C15.0353 34.9649 14.9823 34.9013 15.0014 34.7804C15.0205 34.6745 15.0735 34.6469 15.2028 34.6808ZM16.9602 34.9246C17.0429 34.9564 17.0513 34.9755 17.0513 35.1684C17.0513 35.3698 17.0535 35.3677 16.8478 35.3677C16.6761 35.3677 16.5956 35.3295 16.5638 35.232C16.5362 35.143 16.5829 35.0073 16.6655 34.9437C16.7249 34.897 16.8627 34.8864 16.9602 34.9246Z" fill="white"/>
<path d="M25.5203 8.63346C25.1557 8.72674 25.1175 9.19099 25.461 9.36483C25.5564 9.41358 25.7302 9.40722 25.8426 9.35423C25.9401 9.30759 26.0227 9.19099 26.0503 9.06592C26.0779 8.92813 25.9825 8.73733 25.8489 8.66738C25.7768 8.62922 25.603 8.61226 25.5203 8.63346Z" fill="white"/>
<path d="M13.6828 8.63577C13.5111 8.67817 13.4263 8.80324 13.4263 9.01735C13.4263 9.19754 13.4729 9.2887 13.5959 9.35018C13.7527 9.43073 13.9902 9.40529 14.111 9.29718C14.2149 9.2039 14.2594 9.01099 14.2085 8.87532C14.181 8.80324 14.0919 8.70573 14.0177 8.66757C13.9456 8.62941 13.7718 8.61245 13.6828 8.63577Z" fill="white"/>
<path d="M24.8674 32.1877C24.63 32.2492 24.4095 32.4464 24.3205 32.6796C24.2463 32.8767 24.2505 33.1078 24.3332 33.2795C24.4053 33.4321 24.5727 33.6038 24.7063 33.6653C24.9798 33.7946 25.4059 33.7183 25.6433 33.5021C25.8023 33.3558 25.8744 33.1947 25.8722 32.9763C25.8722 32.6414 25.7026 32.37 25.4101 32.2365C25.2808 32.1771 25.0094 32.1517 24.8674 32.1877Z" fill="white"/>
<path d="M19.362 11.256C17.7021 11.3472 16.6231 11.5846 15.879 12.0213C15.7878 12.0743 15.72 12.1252 15.7306 12.1337C15.7391 12.1422 15.9574 12.1951 16.2139 12.2503C17.0534 12.4283 17.5155 12.564 17.9607 12.7696C18.0837 12.8269 18.4759 13.0304 18.832 13.2212L19.4765 13.5688L19.5634 13.5392C19.6482 13.5116 19.7584 13.4523 20.5385 13.024C21.0876 12.7209 21.4331 12.5852 22.2302 12.3541C22.5461 12.263 23.093 12.1337 23.1651 12.1337C23.1969 12.1337 23.1714 12.0828 23.093 11.998C22.8386 11.7224 21.9843 11.4617 20.8141 11.3048C20.5067 11.2624 19.7139 11.237 19.362 11.256ZM19.663 11.8687C19.786 11.9662 19.9344 12.157 19.9344 12.2206C19.9344 12.2418 19.911 12.263 19.8814 12.2693C19.8538 12.2757 19.7732 12.3351 19.7054 12.3987C19.6354 12.4623 19.5697 12.5153 19.5591 12.5153C19.5316 12.5153 19.3132 12.3605 19.2009 12.263L19.114 12.1867L19.3047 11.981C19.4107 11.8666 19.5061 11.7733 19.5189 11.7733C19.5316 11.7733 19.5973 11.8157 19.663 11.8687Z" fill="white"/>
<path d="M30.5192 12.2606C30.4196 12.2839 30.356 12.3327 30.2987 12.4238C30.2288 12.534 30.2267 12.7821 30.2924 12.905C30.3623 13.0407 30.4281 13.0767 30.5976 13.0746C30.9644 13.0704 31.1446 12.799 30.9835 12.4916C30.8923 12.3157 30.6952 12.2182 30.5192 12.2606Z" fill="white"/>
<path d="M14.6029 12.9965C14.4545 13.0177 14.1874 13.0961 14.0093 13.1661C13.4433 13.3908 12.9769 13.7809 12.7755 14.2006C12.6695 14.4253 12.6759 14.4338 12.8709 14.3405C13.2716 14.1434 13.8079 13.9907 14.3803 13.9102C14.6431 13.8742 15.5738 13.8742 15.8324 13.9102C16.3475 13.9844 16.8309 14.1158 17.1955 14.2812C17.3312 14.3427 17.4668 14.4041 17.4923 14.4147C17.5432 14.4338 17.541 14.4359 17.4223 14.6034C17.2019 14.915 17.0492 15.038 16.8902 15.038C16.8478 15.038 16.6867 14.9871 16.5192 14.9214C15.9787 14.7052 15.6395 14.6458 15.0268 14.6628C14.5732 14.6734 14.3654 14.7052 13.9266 14.8281C13.6213 14.915 12.9027 15.1885 12.7204 15.286C12.5889 15.3581 12.502 15.4577 12.4702 15.5722C12.4427 15.674 12.4575 16.4562 12.4957 16.8378C12.5593 17.4928 12.7267 18.1288 13.0829 19.0764C13.1698 19.3096 13.2822 19.6233 13.333 19.776C13.4136 20.0176 13.4305 20.0516 13.4729 20.0579C13.5175 20.0643 13.5302 20.0473 13.5747 19.9413C13.8206 19.3499 15.1307 17.5246 15.896 16.7106C15.9999 16.5982 16.1864 16.4011 16.3073 16.2696C16.4281 16.1403 16.6083 15.9644 16.71 15.8796C16.8097 15.7948 16.992 15.6316 17.1149 15.515C17.4859 15.1631 17.6958 14.985 18.2067 14.6034C18.4759 14.402 18.7112 14.2176 18.7324 14.1943C18.7685 14.154 18.7685 14.1455 18.7409 14.1052C18.5586 13.8466 17.6322 13.4353 16.6507 13.1809C16.0338 13.022 15.8472 12.9965 15.2282 12.9902C14.9187 12.988 14.6389 12.9902 14.6029 12.9965ZM15.4084 15.4238C15.4678 15.4768 15.4975 15.5934 15.4741 15.6824C15.4678 15.71 15.436 15.763 15.4063 15.799C15.3597 15.8541 15.3363 15.8647 15.2579 15.8647C15.0374 15.8647 14.9124 15.6867 15.0035 15.5065C15.0692 15.3814 15.3024 15.3348 15.4084 15.4238ZM13.9669 16.0598C13.9838 16.1213 13.9987 16.2145 13.9987 16.2718C13.9987 16.4795 14.0792 16.5686 14.3251 16.63C14.4205 16.6533 14.4227 16.6555 14.4227 16.736C14.4227 16.8081 14.4163 16.8187 14.3654 16.8314C14.1238 16.8823 14.039 16.9629 13.9902 17.1918C13.9351 17.4441 13.9266 17.461 13.8651 17.478C13.8333 17.4865 13.8036 17.4843 13.7973 17.4737C13.7909 17.4653 13.7655 17.3593 13.7443 17.2406C13.6892 16.9501 13.6319 16.8759 13.4199 16.8314L13.3627 16.8187L13.3945 16.7403C13.4136 16.6957 13.4793 16.6152 13.5408 16.5601C13.6298 16.4816 13.6701 16.4244 13.721 16.3036C13.7549 16.2166 13.7909 16.1064 13.7994 16.0577C13.81 15.9941 13.827 15.9623 13.8588 15.9495C13.9202 15.9262 13.9287 15.9368 13.9669 16.0598Z" fill="white"/>
<path d="M23.0402 12.9964C22.3428 13.1045 21.533 13.4056 20.5536 13.9186L20.2292 14.0882L20.278 14.1412C20.3056 14.1709 20.4328 14.2747 20.5642 14.3723C21.2298 14.8662 21.8361 15.394 22.5484 16.0979C23.0954 16.6363 23.2755 16.8313 23.655 17.2956C24.4457 18.2623 25.2025 19.3222 25.4315 19.7801C25.5248 19.9709 25.5438 19.9964 25.582 19.9858C25.6074 19.9794 25.6435 19.9561 25.6668 19.9349C25.705 19.8988 25.9233 19.3265 26.1141 18.7626C26.3897 17.9528 26.5444 17.0391 26.5826 16.0025C26.5953 15.6251 26.5953 15.6209 26.5444 15.5467C26.3536 15.2669 25.6053 14.9171 24.8909 14.775C24.5072 14.6966 24.3101 14.6775 23.9242 14.6775C23.3985 14.6775 23.0699 14.7369 22.4339 14.9446C22.1223 15.0464 22.0269 15.057 21.957 14.9997C21.904 14.9573 21.6602 14.597 21.6305 14.5164C21.5987 14.438 21.622 14.3871 21.7111 14.3299C21.8637 14.2366 22.3068 14.0903 22.7562 13.9907C23.1505 13.9038 23.4685 13.8698 23.92 13.8698C24.6598 13.8698 25.0775 13.9525 25.9042 14.2641C26.1968 14.3744 26.4427 14.4655 26.4512 14.4655C26.4745 14.4655 26.3536 14.2557 26.2222 14.0627C26.0865 13.8635 25.794 13.5561 25.6265 13.4374C25.3509 13.2423 25.0308 13.1151 24.6196 13.041C24.4161 13.0049 24.2719 12.9964 23.7398 12.9922C23.39 12.988 23.0763 12.9901 23.0402 12.9964ZM23.7398 15.6463C23.7313 15.7078 23.708 15.7629 23.6826 15.7841C23.6338 15.8286 23.4897 15.835 23.46 15.7947C23.4218 15.7481 23.4112 15.6569 23.4367 15.6018C23.4579 15.5509 23.4706 15.5467 23.6063 15.5467H23.7525L23.7398 15.6463ZM25.1919 15.8413C25.3403 15.9198 25.4061 16.1615 25.3213 16.3014C25.2683 16.3904 25.1601 16.4243 24.9927 16.4095C24.8167 16.3925 24.804 16.3862 24.7722 16.2886C24.734 16.1657 24.7404 16.0767 24.7955 15.9707C24.874 15.8138 25.0414 15.7587 25.1919 15.8413ZM25.5078 17.6263C25.5396 17.7153 25.5375 17.798 25.5036 17.8447C25.4802 17.8765 25.4654 17.8786 25.3743 17.8553C25.2598 17.8277 25.2449 17.8044 25.264 17.6984C25.2746 17.6475 25.2979 17.6136 25.3361 17.5924C25.4315 17.5415 25.4824 17.5521 25.5078 17.6263Z" fill="white"/>
<path d="M19.2772 14.7982C19.1182 14.883 18.4865 15.3706 18.2321 15.608C18.1473 15.6843 17.9078 15.8963 17.6979 16.0765C17.2188 16.4878 16.9983 16.6977 16.8224 16.9139C16.7461 17.0072 16.5956 17.1746 16.4896 17.2849C16.0317 17.7661 15.366 18.6352 14.694 19.6274C14.1789 20.3884 13.9287 20.8399 13.9287 21.0053C13.9287 21.1622 14.1237 21.5226 14.5774 22.203C15.1646 23.0828 16.1864 24.4395 16.5722 24.8529C16.6528 24.9398 17.0217 25.2833 18.1918 26.3623C18.353 26.5107 18.8172 26.869 19.0716 27.0407C19.3069 27.1997 19.5253 27.312 19.5995 27.312C19.6715 27.312 19.8178 27.2124 20.3626 26.7905C21.0304 26.2733 21.2911 26.0443 21.9377 25.3956C22.9086 24.4226 23.4026 23.8099 24.2802 22.4871C24.9416 21.4908 25.1706 21.1049 25.1706 20.9777C25.1706 20.7721 24.5749 19.8648 23.5849 18.5632C22.6839 17.3781 22.0988 16.7549 20.7718 15.5783C20.2079 15.078 19.9535 14.8767 19.7754 14.7897C19.574 14.6943 19.4744 14.6943 19.2772 14.7982ZM19.6164 16.3139C19.6164 16.5471 19.7076 16.6701 19.9408 16.7528C20.0192 16.7803 20.0892 16.8121 20.0955 16.8227C20.1167 16.8545 19.9747 16.9881 19.9196 16.9881C19.8623 16.9881 19.733 17.0983 19.6885 17.1831C19.6694 17.2213 19.6609 17.27 19.6694 17.3039C19.68 17.3506 19.6694 17.3803 19.627 17.429C19.5783 17.4863 19.5655 17.4926 19.5295 17.4693C19.4765 17.4375 19.4256 17.3273 19.4256 17.2467C19.4256 17.1534 19.3429 17.0665 19.1882 17.0008C18.9868 16.9139 18.9592 16.899 18.9592 16.8736C18.9592 16.8397 19.0907 16.7125 19.1267 16.7125C19.1437 16.7125 19.1988 16.6934 19.2497 16.668C19.3599 16.615 19.4468 16.4814 19.4468 16.3669C19.4468 16.2864 19.5041 16.2249 19.5783 16.2249C19.6079 16.2249 19.6164 16.2419 19.6164 16.3139ZM18.2936 17.3315C18.3593 17.3951 18.3826 17.5329 18.3445 17.6241C18.3 17.73 18.2279 17.7724 18.0922 17.7724C17.9141 17.7724 17.8908 17.747 17.8823 17.5414C17.8739 17.3803 17.876 17.3697 17.9311 17.3145C17.982 17.2637 17.9989 17.2594 18.1134 17.2679C18.213 17.2743 18.2512 17.2891 18.2936 17.3315ZM16.7079 18.5992C16.8711 18.6988 16.7121 18.9447 16.5426 18.8536C16.462 18.8091 16.4662 18.6225 16.5489 18.5822C16.6146 18.5504 16.6295 18.5526 16.7079 18.5992ZM19.9344 18.6522C20.2397 18.6988 20.4283 18.7582 20.7082 18.896C21.3696 19.2182 21.7893 19.7694 21.9547 20.5283C21.9907 20.6916 21.9992 20.8039 21.9992 21.1113C21.9971 21.4547 21.9928 21.5141 21.9419 21.7049C21.7999 22.2412 21.412 22.8009 20.9626 23.1188C19.7966 23.9435 18.0816 23.5725 17.3651 22.3387C17.2633 22.1628 17.1488 21.8702 17.1001 21.6625C17.0429 21.4081 17.0471 20.7615 17.1086 20.4944C17.3184 19.5977 17.9226 18.9681 18.8214 18.7137C19.1458 18.6225 19.5825 18.5971 19.9344 18.6522ZM22.7836 18.7073C22.8344 18.7476 22.8387 18.7624 22.8387 18.9278C22.8387 19.0592 22.8302 19.1101 22.8069 19.1292C22.7602 19.1695 22.58 19.1801 22.491 19.1504C22.3108 19.091 22.3023 18.807 22.4762 18.6988C22.5567 18.648 22.7136 18.6522 22.7836 18.7073ZM15.9659 20.0323C16.0232 20.098 16.0232 20.1022 15.9638 20.1913C15.9108 20.2697 15.8599 20.2866 15.773 20.2549C15.72 20.2337 15.7158 20.2231 15.7158 20.1171C15.7158 20.028 15.7243 19.9941 15.7539 19.9771C15.8091 19.9453 15.9108 19.9708 15.9659 20.0323ZM23.6124 20.7064C23.676 20.7339 23.6866 20.7488 23.6866 20.8103C23.6866 20.9099 23.7629 21.0159 23.8817 21.0795C23.9834 21.1346 24.0682 21.2024 24.0682 21.2279C24.0682 21.2364 23.994 21.2682 23.905 21.2957C23.7439 21.3487 23.7396 21.3508 23.7248 21.4314C23.693 21.5968 23.64 21.7791 23.623 21.7791C23.5891 21.7791 23.517 21.6667 23.4958 21.5798C23.4831 21.5332 23.4619 21.4653 23.4492 21.4335C23.4238 21.3678 23.3072 21.2809 23.2139 21.2597C23.1376 21.2406 23.127 21.2194 23.1651 21.1473C23.1885 21.1049 23.233 21.071 23.3156 21.0371C23.4471 20.9841 23.4874 20.929 23.5107 20.7721C23.517 20.7191 23.5276 20.6767 23.5319 20.6767C23.5361 20.6767 23.5722 20.6916 23.6124 20.7064ZM15.7116 21.336C15.7518 21.3508 15.7582 21.3699 15.7582 21.459V21.565L15.6586 21.5968C15.5632 21.6243 15.5547 21.6243 15.5208 21.584C15.4762 21.5332 15.4699 21.3954 15.5102 21.3339C15.5356 21.2894 15.5886 21.2894 15.7116 21.336ZM22.8768 22.4044C22.8917 22.4341 22.9023 22.4977 22.9023 22.5422V22.627H22.7984C22.6797 22.627 22.6542 22.6058 22.6352 22.485C22.6224 22.4002 22.6224 22.3981 22.703 22.3769C22.8302 22.343 22.8514 22.3472 22.8768 22.4044ZM16.551 23.2206C16.5998 23.2376 16.6061 23.2524 16.6061 23.3478V23.4538H16.4705H16.3348L16.32 23.3648C16.3072 23.2884 16.3115 23.2715 16.3518 23.2376C16.4048 23.1952 16.4705 23.1888 16.551 23.2206ZM22.2091 23.4686C22.2811 23.5365 22.2366 23.6361 22.1031 23.7061C22.0289 23.7442 21.9971 23.7336 21.9716 23.6637C21.9144 23.5025 21.9695 23.3987 22.0967 23.422C22.137 23.4305 22.1879 23.4517 22.2091 23.4686ZM19.6164 24.4777C19.6164 24.6282 19.6694 24.7999 19.7288 24.8423C19.7542 24.8593 19.8114 24.8847 19.8538 24.8974C19.8962 24.908 19.962 24.942 19.998 24.9738L20.0637 25.0289L20.0171 25.0776C19.9895 25.1073 19.9323 25.1391 19.8899 25.1497C19.7436 25.19 19.6164 25.4083 19.6164 25.6203C19.6164 25.6988 19.6143 25.7009 19.5337 25.7009H19.4532L19.4405 25.5419C19.4235 25.349 19.3896 25.2599 19.3005 25.1857C19.237 25.1328 19.1161 25.0861 19.0398 25.0861C18.991 25.0861 18.9932 25.0692 19.044 24.9865C19.0801 24.925 19.1818 24.8741 19.2687 24.8741C19.3027 24.8741 19.3769 24.7872 19.4023 24.7194C19.415 24.6855 19.432 24.5943 19.4383 24.5116L19.4532 24.3653H19.5337H19.6164V24.4777ZM21.1851 24.5137C21.2191 24.5477 21.2275 24.5837 21.2275 24.7045C21.2275 24.8487 21.2254 24.855 21.1703 24.8762C21.1364 24.889 21.0707 24.9059 21.0198 24.9102C20.8799 24.9271 20.846 24.8847 20.846 24.6918C20.846 24.4989 20.8693 24.4713 21.0283 24.4713C21.1152 24.4713 21.1533 24.4819 21.1851 24.5137Z" fill="white"/>
<path d="M19.1502 19.4344C18.4633 19.5807 18.0012 20.0259 17.8676 20.6682C17.8273 20.8675 17.8273 21.2406 17.8676 21.4187C17.9524 21.7769 18.1093 22.0525 18.3785 22.309C18.7707 22.6842 18.9488 22.7627 19.4681 22.7881C19.6759 22.7987 19.7713 22.7945 19.9112 22.7669C20.5111 22.644 20.9881 22.1691 21.1683 21.5141C21.2298 21.2851 21.2361 20.7784 21.1789 20.5707C21.0284 20.0301 20.6002 19.6189 20.0257 19.4662C19.8137 19.409 19.3515 19.392 19.1502 19.4344ZM19.4893 19.7376C19.4978 19.7461 19.4978 19.8287 19.4893 19.9178C19.4724 20.117 19.4469 20.151 19.2689 20.2103C18.9594 20.3142 18.83 20.4371 18.6944 20.7615C18.5969 20.9883 18.5354 21.0583 18.4251 21.0583C18.3255 21.0583 18.228 21.0116 18.1941 20.948C18.1602 20.8844 18.1665 20.7064 18.2068 20.5919C18.2768 20.3926 18.3933 20.2209 18.5863 20.028C18.8025 19.8139 18.9827 19.7079 19.1756 19.6825C19.2837 19.6676 19.4554 19.6973 19.4893 19.7376Z" fill="white"/>
<path d="M3.26575 19.534C3.24667 19.5446 3.21488 19.5849 3.19368 19.623C3.13008 19.7481 3.13008 20.3862 3.1958 20.4752C3.21912 20.507 3.36115 20.5112 4.99347 20.5091C6.69152 20.507 6.77207 20.5049 6.97347 20.4646C7.42288 20.3713 7.64971 20.3904 7.94438 20.5452C8.12245 20.6384 8.34292 20.8504 8.42984 21.0094C8.66939 21.4588 8.59307 22.0694 8.25389 22.417C7.9677 22.7096 7.56068 22.7986 7.04978 22.682C6.72968 22.6078 6.50497 22.5888 5.62097 22.5612C5.01891 22.5421 4.68821 22.5421 4.14763 22.5612C3.39083 22.5888 3.23607 22.6036 3.2064 22.6502C3.19368 22.6672 3.18944 22.8092 3.19368 22.9873C3.20216 23.2268 3.21276 23.3265 3.25091 23.4431C3.27635 23.5236 3.30815 23.6021 3.32087 23.6169C3.33571 23.6317 3.45866 23.6529 3.6007 23.6657C3.95472 23.6975 6.75087 23.7165 8.45104 23.6975C10.0664 23.6805 9.95829 23.6932 9.95405 23.5046C9.95405 23.4473 9.91377 23.2438 9.86501 23.0509C9.69754 22.3746 9.68694 22.2687 9.68482 21.408C9.68482 20.6448 9.70178 20.3862 9.77174 19.9982C9.81202 19.7841 9.80354 19.6124 9.74842 19.5531C9.71026 19.5107 9.69118 19.5107 6.50709 19.5107C4.37022 19.5128 3.29119 19.5191 3.26575 19.534Z" fill="white"/>
<path d="M29.2196 19.6677C29.2196 19.7547 29.2408 19.9773 29.2663 20.1617C29.3087 20.4627 29.315 20.5814 29.315 21.3234C29.315 22.0844 29.3108 22.1714 29.2663 22.4151C29.1391 23.1317 29.1157 23.2864 29.1094 23.4539L29.103 23.632L29.209 23.6489C29.5736 23.704 32.4885 23.7252 34.7356 23.6892C35.5412 23.6765 35.5793 23.6744 35.6366 23.632C35.7532 23.5472 35.7934 23.3839 35.8274 22.8921C35.838 22.7077 35.8358 22.6971 35.785 22.6377L35.732 22.5741L34.07 22.5678C33.0037 22.5635 32.3592 22.5699 32.268 22.5847C32.1896 22.5953 32.0497 22.6314 31.9607 22.6611C31.7338 22.7352 31.3607 22.7543 31.1805 22.7013C30.9028 22.6208 30.693 22.4703 30.5361 22.2328C30.2202 21.7622 30.2711 21.1941 30.6612 20.7743C30.8138 20.6111 30.941 20.5263 31.1275 20.4627C31.312 20.4012 31.6342 20.3991 31.9967 20.4627C32.2532 20.5051 32.321 20.5072 34.0064 20.5072H35.751L35.8019 20.4542C35.8528 20.4055 35.8549 20.3949 35.8549 20.0938C35.8549 19.7419 35.8316 19.6126 35.7532 19.5533C35.7023 19.5109 35.6535 19.5109 32.461 19.5109H29.2196V19.6677Z" fill="white"/>
<path d="M1.45526 20.7063C1.15211 20.7826 0.952839 20.948 0.810805 21.2405C0.719649 21.425 0.717529 21.4334 0.717529 21.6412C0.717529 21.8405 0.721769 21.8638 0.789606 21.9994C0.91256 22.2496 1.17967 22.4701 1.44678 22.5421C1.57821 22.5761 1.81564 22.5718 1.93859 22.5315C2.11243 22.4722 2.27354 22.3365 2.41981 22.1224C2.56609 21.9104 2.62544 21.8532 2.73992 21.8193C2.7908 21.8044 3.48188 21.8002 4.87254 21.8044L6.92885 21.8108L7.0942 21.9019C7.23835 21.9846 7.27863 21.9973 7.42279 22.0058C7.56906 22.0164 7.5945 22.0122 7.66022 21.9655C7.85737 21.832 7.88916 21.4779 7.71745 21.2956C7.59238 21.16 7.42279 21.1494 7.10692 21.2596L6.89069 21.3338H4.78987C2.37741 21.3338 2.60212 21.355 2.45161 21.1218C2.2481 20.8144 2.06155 20.6978 1.7478 20.6851C1.64181 20.6809 1.51885 20.6893 1.45526 20.7063Z" fill="white"/>
<path d="M37.0273 20.717C36.8662 20.7722 36.7623 20.8527 36.6076 21.0456C36.5292 21.1389 36.4274 21.2428 36.3808 21.2746L36.2938 21.3339H34.1464H31.9968L31.8124 21.2576C31.6513 21.1898 31.611 21.1813 31.4859 21.1898C31.3735 21.1961 31.3312 21.2089 31.2697 21.2534C31.0874 21.3954 31.0492 21.7007 31.1976 21.8597C31.2676 21.936 31.3947 21.9932 31.5177 22.0059C31.6195 22.0165 31.647 22.0081 31.8378 21.9148L32.0477 21.8109L34.104 21.8046C35.4925 21.8003 36.1879 21.8046 36.2387 21.8215C36.3299 21.8469 36.455 21.9763 36.6097 22.2052C36.7878 22.4638 36.9807 22.5635 37.3093 22.5635C37.6336 22.5635 37.8944 22.4384 38.0703 22.201C38.4138 21.7325 38.2823 21.035 37.8011 20.7912C37.57 20.6746 37.2414 20.6428 37.0273 20.717Z" fill="white"/>
<path d="M13.1231 22.801C12.9641 23.2589 12.8051 23.7444 12.7691 23.8779C12.6271 24.4248 12.4978 25.1901 12.449 25.7837C12.3939 26.4769 12.485 26.6189 13.1634 26.9009C14.0071 27.2528 14.7894 27.3779 15.5398 27.2804C15.9956 27.221 16.5023 27.0832 16.869 26.9221L16.9856 26.8712L17.1891 27.1171C17.3693 27.3355 17.4583 27.4754 17.4795 27.5623C17.4838 27.5835 17.4244 27.6068 17.2909 27.6429C17.1849 27.6704 16.9072 27.7552 16.6761 27.8294C16.0083 28.0456 15.7539 28.0838 14.9738 28.0838C14.5541 28.0838 14.3866 28.0753 14.2212 28.0478C13.9414 27.999 13.5704 27.9036 13.3097 27.8125C13.1931 27.7722 12.998 27.7043 12.8772 27.6641C12.7564 27.6217 12.6525 27.592 12.6461 27.5962C12.6228 27.6195 12.8942 27.9884 13.0701 28.1728C13.475 28.5947 13.935 28.8618 14.4226 28.953C14.7279 29.0123 15.6183 28.989 16.1525 28.9106C16.4599 28.866 16.8372 28.7706 17.1509 28.6562C17.399 28.5671 18.2406 28.2174 18.5416 28.0796C18.6794 28.0181 18.743 27.9439 18.7621 27.8337C18.7727 27.7679 18.7663 27.7573 18.7027 27.7234C18.4589 27.5983 17.8102 27.1129 17.2739 26.6571C16.8287 26.2755 15.9659 25.4212 15.5865 24.9803C14.8466 24.1259 14.3272 23.4009 13.7845 22.4682C13.6171 22.1799 13.4687 21.97 13.4305 21.97C13.422 21.97 13.2842 22.3452 13.1231 22.801ZM13.5831 24.109C13.634 24.1641 13.651 24.2871 13.6107 24.3189C13.5959 24.3337 13.5386 24.3485 13.4877 24.3549C13.3139 24.3761 13.2736 24.2786 13.3966 24.1344C13.4581 24.0602 13.5301 24.0496 13.5831 24.109ZM13.8799 24.8128C13.9287 24.87 13.935 24.8912 13.9223 24.9803C13.9138 25.0523 13.9181 25.1011 13.9456 25.1562C14.0008 25.2728 14.0516 25.3088 14.1576 25.3025C14.2615 25.2982 14.2806 25.3173 14.3039 25.4488L14.3166 25.5251L14.2191 25.5399C14.0919 25.5569 13.9902 25.6205 13.9478 25.7095C13.9075 25.7922 13.8714 25.9703 13.8714 26.0741C13.8714 26.1441 13.8672 26.1462 13.7909 26.1462H13.7103L13.6891 25.9342C13.6637 25.6862 13.6298 25.6226 13.4899 25.5717C13.439 25.5526 13.3648 25.4996 13.3224 25.4551L13.2461 25.3724L13.3097 25.3512C13.4369 25.3088 13.5831 25.2219 13.6213 25.1711C13.6425 25.1414 13.6679 25.0629 13.6807 24.9951C13.6976 24.8806 13.7676 24.7471 13.8079 24.7471C13.8163 24.7471 13.8503 24.7768 13.8799 24.8128ZM15.3999 26.3815C15.4444 26.4176 15.4826 26.4578 15.4826 26.4684C15.4826 26.5087 15.3766 26.6338 15.3405 26.6338C15.3215 26.6338 15.2706 26.6232 15.2239 26.6083C15.137 26.5829 15.1349 26.5723 15.1773 26.4218C15.1837 26.3964 15.2812 26.3179 15.3109 26.3158C15.3151 26.3158 15.3554 26.3455 15.3999 26.3815Z" fill="white"/>
<path d="M25.5162 22.0824C25.4801 22.1184 25.4271 22.199 25.3953 22.2583C25.2469 22.5572 24.4371 23.7868 24.0937 24.2383C23.4895 25.0312 22.5419 26.0572 22.0226 26.4854C21.9187 26.5723 21.7597 26.7059 21.6728 26.7843C21.5859 26.8606 21.376 27.026 21.2064 27.1532C20.8418 27.4267 20.528 27.6789 20.4157 27.7892L20.333 27.8676L20.3987 27.9354C20.5386 28.0796 20.8884 28.2598 21.5286 28.5163C21.9653 28.6922 22.2134 28.7728 22.5419 28.847C23.1461 28.9805 24.081 29.0441 24.5029 28.9805C25.2469 28.8639 25.7409 28.565 26.2221 27.9354C26.3281 27.7955 26.3451 27.7616 26.3535 27.662C26.3599 27.575 26.3557 27.5454 26.3366 27.5454C26.3196 27.5454 26.2051 27.5941 26.0801 27.6514C25.4377 27.9503 24.7848 28.0817 23.9623 28.0817C23.1376 28.0817 22.383 27.9291 21.7703 27.6344L21.5626 27.5348L21.6876 27.3652C21.836 27.1659 22.0798 26.9306 22.1392 26.9306C22.1625 26.9306 22.2791 26.9645 22.3978 27.0069C23.1779 27.2783 23.2818 27.2995 23.8669 27.2995C24.2146 27.2995 24.3417 27.291 24.5749 27.2507C25.4611 27.0981 26.1352 26.8522 26.4108 26.5829C26.6037 26.3943 26.6122 26.3434 26.5698 25.6693C26.5146 24.834 26.3684 24.0708 26.0843 23.1678C25.8638 22.4618 25.7409 22.1629 25.6285 22.0569L25.5819 22.0124L25.5162 22.0824ZM25.4695 24.8107H25.531V24.9485V25.0863H25.4271C25.3402 25.0863 25.319 25.0778 25.2872 25.0312C25.2236 24.9336 25.2893 24.7683 25.3784 24.8001C25.3953 24.8065 25.4356 24.8107 25.4695 24.8107ZM24.7148 25.7138C24.8018 25.7477 24.8378 25.9533 24.7806 26.0911C24.7191 26.2374 24.6004 26.2798 24.3969 26.2268L24.3015 26.2013V25.983C24.3015 25.7837 24.3057 25.7646 24.3481 25.735C24.3969 25.7011 24.6428 25.6862 24.7148 25.7138ZM23.6316 26.2755C23.7312 26.354 23.6931 26.4833 23.5574 26.5172C23.4535 26.5427 23.3496 26.3519 23.4217 26.2734C23.4705 26.2183 23.5595 26.2204 23.6316 26.2755Z" fill="white"/>
<path d="M19.4256 28.4421C19.3726 28.4696 19.1733 28.5905 18.9804 28.7092C18.4568 29.0335 18.0328 29.2264 17.3481 29.449C16.7863 29.6335 16.0125 29.8137 15.7878 29.8137C15.6988 29.8137 15.6967 29.8306 15.7857 29.9133C16.5595 30.6383 19.7054 30.9542 21.8423 30.5217C22.3044 30.4263 22.7814 30.2525 23.0188 30.0892C23.1163 30.0214 23.2838 29.8603 23.2838 29.8327C23.2838 29.8221 23.252 29.8137 23.2117 29.8137C22.9828 29.8137 22.3044 29.6568 21.8147 29.4936C21.0876 29.2498 20.4346 28.9275 19.7372 28.4739C19.6058 28.3891 19.5379 28.3806 19.4256 28.4421ZM19.7351 29.6165C19.7902 29.6843 19.8474 29.7713 19.8644 29.8094C19.8941 29.8794 19.892 29.8836 19.8135 29.9854C19.7351 30.0892 19.6248 30.1762 19.54 30.2037C19.451 30.2313 19.2178 30.0045 19.1839 29.8561C19.1585 29.7501 19.451 29.4978 19.5994 29.4957C19.6185 29.4957 19.68 29.5508 19.7351 29.6165Z" fill="white"/>
<path d="M19.345 33.9157C19.1161 34.0323 18.9931 34.3206 19.0927 34.5135C19.1394 34.6047 19.2623 34.7043 19.3556 34.7298C19.5443 34.7828 19.7605 34.7382 19.8644 34.6238C20.0658 34.4012 19.8538 33.9094 19.5379 33.8691C19.4786 33.8627 19.4277 33.8754 19.345 33.9157Z" fill="white"/>
</svg>
