<svg width="42" height="42" viewBox="0 0 42 42" fill="none" xmlns="http://www.w3.org/2000/svg">
<rect x="0.5" y="0.5" width="41" height="41" rx="20.5" stroke="#1F1F23"/>
<g clip-path="url(#clip0_113_104)">
<path fill-rule="evenodd" clip-rule="evenodd" d="M28.7769 13.43C29.024 13.326 29.2945 13.2901 29.5602 13.3261C29.8259 13.3621 30.0771 13.4686 30.2876 13.6347C30.4981 13.8007 30.6603 14.0201 30.7573 14.27C30.8542 14.52 30.8824 14.7914 30.8389 15.056L28.5709 28.813C28.3509 30.14 26.8949 30.901 25.6779 30.24C24.6599 29.687 23.1479 28.835 21.7879 27.946C21.1079 27.501 19.0249 26.076 19.2809 25.062C19.5009 24.195 23.0009 20.937 25.0009 19C25.7859 18.239 25.4279 17.8 24.5009 18.5C22.1989 20.238 18.5029 22.881 17.2809 23.625C16.2029 24.281 15.6409 24.393 14.9689 24.281C13.7429 24.077 12.6059 23.761 11.6779 23.376C10.4239 22.856 10.4849 21.132 11.6769 20.63L28.7769 13.43Z" fill="#606468"/>
</g>
<defs>
<clipPath id="clip0_113_104">
<rect width="24" height="24" fill="white" transform="translate(9 9)"/>
</clipPath>
</defs>
</svg>
